<?xml version="1.0" encoding="utf-8"?>
<!-- Generator: Adobe Illustrator 24.3.0, SVG Export Plug-In . SVG Version: 6.00 Build 0)  -->
<svg version="1.1" id="Layer_1" xmlns="http://www.w3.org/2000/svg" xmlns:xlink="http://www.w3.org/1999/xlink" x="0px" y="0px"
	 viewBox="0 0 110 89" style="enable-background:new 0 0 110 89;" xml:space="preserve">
<g>
	<path d="M43,31c-1.2,0-2.2-0.2-3-0.9l0,0c-0.8-0.6-1.2-1.6-1.2-3l0,0v-7.8h2.4v7.3c0,0.9,0.2,1.3,0.5,1.7l0,0
		c0.3,0.3,0.8,0.5,1.6,0.5l0,0c1.2,0,2.7,0,2.7,0v-9.5h2.4V31C48.3,31,44.6,31,43,31L43,31L43,31L43,31z"/>
	<path d="M63.8,31c-1.2,0-2.2-0.2-3-0.9l0,0c-0.8-0.6-1.2-1.6-1.2-3l0,0v-7.8H62v7.3c0,0.9,0.2,1.3,0.5,1.7l0,0
		c0.3,0.3,0.8,0.5,1.6,0.5l0,0c1.2,0,2.7,0,2.7,0V28v-8.6h2.4V31C69,31,65.3,31,63.8,31L63.8,31L63.8,31L63.8,31z"/>
	<path d="M52.8,15h2.4v16h-2.4V15z"/>
	<path d="M52.8,51.5V35.4h2.4v16L52.8,51.5L52.8,51.5z"/>
	<path d="M79.9,51.5v-7.3c0-0.9-0.2-1.4-0.5-1.7l0,0c-0.3-0.3-0.8-0.5-1.6-0.5l0,0h-2.7v9.5h-2.4V35.4h2.4v4.4H78
		c1.2,0,2.3,0.2,3,0.9l0,0c0.8,0.6,1.2,1.7,1.2,3l0,0v7.8L79.9,51.5L79.9,51.5z"/>
	<path d="M39.5,71.9L35.4,67v4.9H33v-16h2.4v8.9l4.3-4.6h3.2l-5.4,5.6l5.3,6.1H39.5L39.5,71.9z"/>
	<path d="M45.9,71.9V60.1h2.4v11.7h-2.4V71.9z M46.1,58.3c-0.2-0.2-0.4-0.6-0.4-1.1l0,0c0-0.4,0.1-0.8,0.4-1l0,0
		c0.2-0.2,0.6-0.4,1-0.4l0,0c0.4,0,0.7,0.1,1,0.4l0,0c0.2,0.2,0.4,0.6,0.4,1l0,0c0,0.4-0.1,0.8-0.4,1.1l0,0c-0.2,0.2-0.6,0.4-1,0.4
		l0,0C46.7,58.7,46.3,58.5,46.1,58.3L46.1,58.3z"/>
	<path d="M52.8,71.9v-16h2.4v16H52.8L52.8,71.9z"/>
	<path d="M63.6,72c-1.4,0-2.7-0.4-3.6-1.4l0,0c-0.9-1-1.4-2.5-1.4-4.6l0,0c0-1.9,0.5-3.4,1.5-4.4l0,0c1-1,2.4-1.5,3.9-1.5l0,0
		c1.5,0,2.8,0.5,3.7,1.5l0,0c0.9,1,1.3,2.5,1.3,4.3l0,0c0,2-0.5,3.5-1.4,4.6l0,0C66.6,71.5,65.2,72,63.6,72L63.6,72L63.6,72L63.6,72
		z M63.7,69.9c1.6,0,2.7-0.9,2.8-3.9l0,0c0-2.9-1.2-3.8-2.7-3.9l0,0c-1.6,0-2.8,0.9-2.9,3.7l0,0C61,69.1,62.2,69.8,63.7,69.9
		L63.7,69.9z"/>
	<path d="M25.3,31l6.3-9.5h-5.1v-2.1h9.3L29.6,29h5.7v2H25.3z"/>
	<path d="M68.4,41.3c-0.8-1-2-1.6-3.6-1.5c-1.4,0-5.2,0-5.2,0v16H62v-4.2c0.4,0,1,0.1,1.7,0.1c1.9,0,3.4-0.6,4.4-1.7
		s1.5-2.8,1.5-4.8C69.5,43.6,69.1,42.3,68.4,41.3z M63.7,49.6c-0.7,0-1.3-0.1-1.7-0.2V42h2.5c1,0,1.6,0.3,2,0.9
		c0.4,0.5,0.6,1.4,0.6,2.4C67,48.4,65.8,49.5,63.7,49.6z"/>
	<path d="M47.3,40.9c-0.7-0.7-1.8-1.2-3.3-1.2c-1,0-3.8,0-3.8,0V42h3.6c1.6,0,2.1,0.5,2.2,1.8l0,0c-0.3,0-0.8,0-1.1,0
		c-1.8,0-3.2,0.3-4.2,1s-1.5,1.7-1.5,3c0,1.2,0.4,2.1,1.2,2.7c0.7,0.6,1.7,0.9,2.9,0.9h5.1v-7.6C48.3,42.7,48,41.6,47.3,40.9z
		 M43.6,49.3c-1.6,0-2-0.7-2.1-1.5c0-0.7,0.2-1.1,0.7-1.4c0.5-0.3,1.3-0.5,2.5-0.5c0.3,0,0.8,0,1.2,0v3.3
		C45.2,49.3,44.6,49.4,43.6,49.3z"/>
	<path d="M93.6,40.9c-0.7-0.7-1.8-1.2-3.3-1.2c-1,0-3.8,0-3.8,0V42h3.6c1.6,0,2.1,0.5,2.2,1.8l0,0c-0.3,0-0.8,0-1.1,0
		c-1.8,0-3.2,0.3-4.2,1s-1.5,1.7-1.5,3c0,1.2,0.4,2.1,1.2,2.7c0.7,0.6,1.7,0.9,2.9,0.9h5.1v-7.6C94.6,42.7,94.3,41.6,93.6,40.9z
		 M89.9,49.3c-1.6,0-2-0.7-2.1-1.5c0-0.7,0.2-1.1,0.7-1.4c0.5-0.3,1.3-0.5,2.5-0.5c0.3,0,0.8,0,1.2,0v3.3
		C91.6,49.3,90.9,49.4,89.9,49.3z"/>
</g>
</svg>
